<svg width="448" height="262" viewBox="0 0 448 262" fill="none" xmlns="http://www.w3.org/2000/svg">
<path d="M420 15.999H36C18.3269 15.999 4 30.3259 4 47.999V257.999" stroke="#36B5AC"/>
<circle cx="4" cy="257.999" r="4" fill="#36B5AC"/>
<path fill-rule="evenodd" clip-rule="evenodd" d="M443 15.999C443 22.0742 438.075 26.999 432 26.999C425.925 26.999 421 22.0742 421 15.999C421 9.92389 425.925 4.99902 432 4.99902C438.075 4.99902 443 9.92389 443 15.999ZM444 15.999C444 22.6264 438.627 27.999 432 27.999C425.373 27.999 420 22.6264 420 15.999C420 9.37161 425.373 3.99902 432 3.99902C438.627 3.99902 444 9.37161 444 15.999ZM432 19.999C434.209 19.999 436 18.2082 436 15.999C436 13.7899 434.209 11.999 432 11.999C429.791 11.999 428 13.7899 428 15.999C428 18.2082 429.791 19.999 432 19.999Z" fill="#36B5AC"/>
</svg>
